<svg id="Layer_1" data-name="Layer 1" xmlns="http://www.w3.org/2000/svg" width="530" height="170" viewBox="0 0 530 170">
  <title>brand_530x170</title>
  <g id="surface2">
    <path d="M100.8,123.4c-.1.5-.3,1.1-.4,1.7l-2.8-1.4.3-3.3,3.6-2.1c-.2,1.7-.4,3.4-.7,5.1" fill="#588fcb" fill-rule="evenodd"/>
    <path d="M95.7,137.3a17.4,17.4,0,0,0-1.1,1.8c-.1,0-.1.1-.1.2a13,13,0,0,0-1,1.5l-.2.3a7.1,7.1,0,0,0-1,1.4h-.1l-5.8,3.7-5.7-1.7,2.7-5.2L81.8,133l-.5-4.7.8-4.2-4.9-1.5-3.6,3.6-5.9-3.5,1.8-9.1,3.3-4.8-.2-5.3,4.2-3.7-3.1-6.1-2.9,4.6-4-9.1,5.9-.3-2.3-8H64.2l-1.7-5.6L58,72.7l-4.5.9-4.6,1.6,4.7,3.6L49,84.2l3,2.9-.8,5.3-6.7-3.9-.6,7.6L47.4,92l7.2,9.4-2.6.4-5.3.4-5.1,5.6-1.9-2.1-5.4-.2-2.5,5,3.8,2.6,2.3,2.9,2.6,3.1,8,3.3.7,5,4.7,1,3.7,4.7-4,4.4L50,139.1l-.6,3-3.3,2.6h-.4l-4,1.6-2.1,3.3.5,4.7a10.8,10.8,0,0,0-2.5-1.6,3.4,3.4,0,0,1-1.2-2.1,17.9,17.9,0,0,1-.6-2l-1.5-6.9,3.4-2.5,1.1-5.6-3-2.3-3.1-4.9,3.3-2,1-5.2-1.4-.3-2.5-6-4.9-4.4,1.5-3.4-2.3-4.5L29.3,91,36,88l5.4-4.7.7-3.9-2.2-2.7,5.9-2.1,6.4-6.2-.7-.8h3.4a47.3,47.3,0,0,1,9,.9l2.9.6.8.3,2.2.6.7.3,2.6,1,.5.2,2.2,1,.7.4,2.1,1.1.4.3,2.4,1.5.5.4,1.8,1.3.6.5a48.6,48.6,0,0,1,4.1,3.8l.5.5,1.5,1.7.4.5,1.8,2.1a.5.5,0,0,0,.2.4l1.4,2,.4.6,1.2,2.1c0,.1.1.2.2.3l1.2,2.5.3.6.9,2.1c.1.2.1.4.2.6l1,2.7-5.9,7-2.3-5.6-5.1-1.6-6.9,2.4L78.3,107l4.2,3.7,4.9-4.5,5.4,5.9,4.2-.6,3.7-3,.9,3.8h0c.1,1.1.1,2.2.1,3.2L95.8,119l-.6,6,4.6,2.4a48,48,0,0,1-4.1,9.9" fill="#129d49" fill-rule="evenodd"/>
    <path d="M71.5,101.4l1.2-1.9.8-1.2.5.9-2.5,2.2" fill="#588fcb" fill-rule="evenodd"/>
    <path d="M100.8,105.4l-1.5,1.3L96,109.3H95l.5-.5,4.8-5.8c.2.7.3,1.5.5,2.3" fill="#588fcb" fill-rule="evenodd"/>
    <path d="M90.9,106.6l-1.8-2L87.6,103l2.1.7,1.2,2.9" fill="#588fcb" fill-rule="evenodd"/>
    <path d="M87.4,102.9l-1.6,1.5-3.4,3.1-1.5-1.4.5-1.8,4.9-1.7,1.1.3" fill="#588fcb" fill-rule="evenodd"/>
    <path d="M8.9,105.2c2.2-10.3,6.9-18.7,14.2-25.3A46.1,46.1,0,0,1,48.7,67.8l.4.4-4.5,4.4-5.4,1.8-3.1,1.1,2,2.6L39.7,80l-.4,2-4.6,4-6.3,2.8-1.1.5-.2,1.2-1.9,9.7-.2.8.4.7,1.8,3.5-1.1,2.4-.7,1.5,1.2,1.2,4.5,4,2.4,5.6L34,121h.3l-.4,2-2.4,1.4-2,1.3,1.3,1.9,3,5,.2.3.4.3,1.8,1.4-.6,3.3-2.7,2-1.2.9.3,1.4,1.6,6.9h0c1.1,4.1,2.2,6,3.4,5.8l1.6,1.1,3.8,3.3Q24.4,154,15.1,139c-6.3-10.1-8.4-21.4-6.2-33.8" fill="#588fcb" fill-rule="evenodd"/>
    <path d="M45.8,160.2l-2.8-.6-.6-5.5-.4-3.9,1.3-2,3.2-1.2.5-.2h.3l.2-.2,3.3-2.6.7-.5v-.8l.4-1.9,2.5-1.1.4-.2.4-.4,4-4.4,1.3-1.4-1.2-1.5-3.6-4.8-.6-.7h-.8l-3.1-.7-.5-3.4-.2-1.3-1.2-.5-7.5-3.1-2.2-2.6-2.3-2.9-.2-.2-.3-.2-2.1-1.5.9-1.9h2.9l1.3,1.4,1.7,1.9,1.7-1.9,4.5-4.9,4.3-.4h.2l2.6-.3,4-.5L56.5,100l-3.4-4.4.4-2.9.8-5.3V86.2l-.8-.8L52.1,84l3.3-3.7L57,78.4l-2-1.5-1.3-1h.4l3.5-.7,3,1.7,1.3,4.7.5,1.6h6.3l1,3.5h-3l-3.3.2,1.3,3,4,9.2,1.6,3.8v5l-2.8,4.3-.3.3v.5l-1.8,9.1-.3,1.7,1.4.8,6,3.5,1.5.9,1.3-1.3,2.6-2.6,1.5.5-.4,2.1v.7l.5,4.7v.2h.1L81,139l-2.4,4.5-1.3,2.4,2.7.9,5.7,1.7.9.2a46.7,46.7,0,0,1-40.8,11.5" fill="#588fcb" fill-rule="evenodd"/>
    <path d="M45.8,160.2a23,23,0,0,1-2.8-.6l-.6-5.4-.4-3.9,1.3-2.1,3.2-1.2.4-.2h.3l.3-.2,3.3-2.5.6-.6.2-.8.4-1.9,2.5-1.1.4-.2.3-.4,4.1-4.3,1.3-1.5-1.2-1.5-3.7-4.8-.5-.7h-.8l-3.2-.6-.4-3.5-.2-1.3-1.3-.5-7.4-3-2.2-2.7-2.3-2.9-.2-.2-.3-.2-2.1-1.5.9-1.9h2.9l1.2,1.4,1.7,1.9,1.8-1.9,4.5-4.9,4.3-.3h.1l2.7-.3,4-.5L56.5,100l-3.4-4.4.4-2.9.8-5.3V86.2l-.8-.8L52.1,84l3.3-3.7L57,78.4l-2-1.5-1.3-1h.4l3.5-.7,3,1.8,1.3,4.6.5,1.6h6.3l.9,3.5H66.7l-3.3.2,1.3,3.1,4,9.1,1.6,3.8v5.1l-2.8,4.2-.3.4v.4l-1.8,9.2-.3,1.6,1.4.8,6,3.5,1.5.9,1.3-1.3,2.6-2.6,1.5.5-.4,2.1v.7l.5,4.7v.2h0l1.5,5.6-2.4,4.4L77.3,146l2.7.8,5.7,1.7.9.2a46.7,46.7,0,0,1-40.8,11.5m-36.9-55A46.6,46.6,0,0,1,48.7,67.9l.3.4-4.4,4.3-5.4,1.9-3.1,1,2,2.6L39.6,80l-.4,2-4.5,4-6.3,2.9-1.1.5-.2,1.1-2,9.7v.8l.4.7,1.7,3.5L26,107.6l-.6,1.6,1.2,1.1,4.5,4.1,2.4,5.5L34,121h.3l-.4,2-2.4,1.4-2,1.2,1.2,2,3.1,4.9.2.4.3.2,1.9,1.5-.6,3.2-2.7,2-1.2.9.3,1.4,1.5,7h.1c1.1,4.1,2.2,6,3.4,5.8l1.6,1.2,3.8,3.2c-12-3.5-21.1-10.4-27.3-20.4s-8.4-21.3-6.2-33.8M87.4,103l-1.6,1.4-3.4,3.1-1.5-1.3.5-1.9,4.9-1.7,1.1.4m3.5,3.6-1.8-2L87.6,103l2.1.7,1.2,2.9m9.9-1.1-1.5,1.2L96,109.3l-1,.2.5-.6,4.8-5.8c.2.8.3,1.6.5,2.4m-29.3-4.1,1.2-1.9.8-1.2.5.9-2.5,2.2m24.1,35.9-1,1.7v.2l-1,1.6-.2.3a11.3,11.3,0,0,0-1,1.3v.2l-5.8,3.7-5.7-1.7,2.7-5.3L81.8,133l-.5-4.7.8-4.2-4.9-1.5-3.6,3.6-5.9-3.5,1.8-9.1,3.2-4.9v-5.2l4.2-3.7-3.1-6.1-2.9,4.6-4-9.2,5.8-.2-2.2-8H64.1l-1.6-5.5L58,72.7l-4.5.8-4.7,1.7,4.8,3.6-4.7,5.4L52,87.1l-.8,5.3-6.7-3.9-.6,7.6,3.5-4.2,7.2,9.5-2.6.4-5.3.4-5.1,5.6-1.9-2.1-5.5-.2-2.4,5,3.8,2.6,2.3,2.9,2.6,3.1,8,3.3.7,5,4.7.9,3.7,4.8-4.1,4.4-3.6,1.6-.6,3-3.2,2.6h-.4l-4,1.6-2.1,3.3.5,4.7a10.8,10.8,0,0,0-2.5-1.6,3.4,3.4,0,0,1-1.2-2.1,17.9,17.9,0,0,1-.6-2l-1.5-7,3.4-2.5,1-5.5-3-2.3-3-4.9,3.3-2,1-5.3-1.4-.2L33,113l-4.8-4.4,1.5-3.5-2.3-4.4L29.3,91,36,88l5.4-4.7.7-3.9-2.2-2.8,5.9-2,6.4-6.2-.7-.8h3.3a56.9,56.9,0,0,1,9.1.8l2.9.7.8.2,2.2.7.7.2,2.6,1.1.5.2,2.2,1,.7.4,2.1,1.1.4.3a15.8,15.8,0,0,1,2.4,1.5l.5.4,1.8,1.3.6.5a48.6,48.6,0,0,1,4.1,3.8l.5.5,1.5,1.7.4.4,1.7,2.2.3.4a13.7,13.7,0,0,1,1.3,2l.4.6,1.3,2.1c0,.1.1.2.2.3l1.2,2.5.3.6.9,2.1c.1.2.1.4.2.6l1,2.7-5.9,7-2.3-5.6-5.2-1.6-6.8,2.4L78.3,107l4.1,3.7,5-4.5,5.4,5.9,4.2-.6,3.7-3,.9,3.8h0v3.2L95.8,119l-.6,6,4.6,2.4a43.4,43.4,0,0,1-4.2,9.9m5.2-13.9c-.1.5-.3,1.1-.4,1.7l-2.8-1.5.3-3.2,3.6-2.1c-.2,1.7-.4,3.4-.7,5.1M64.5,65.3a53.1,53.1,0,0,0-9.7-.9c-12.2.2-22.7,4-31.6,11.4A49.2,49.2,0,0,0,5.9,104.6c-2.4,14,.1,26.4,7.5,37.5s18,18.1,31.8,21.2a52.3,52.3,0,0,0,9.7.9,49.5,49.5,0,0,0,31.6-11.4c9-7.3,14.7-17,17.3-28.9,2.4-13.9-.1-26.3-7.5-37.4s-18-18.1-31.8-21.2" fill="#010101" fill-rule="evenodd"/>
    <path d="M91.7,93.2l-4.5-3.5-5.5,1.5,2.2,3.3,7.8-1.3" fill="#010101" fill-rule="evenodd"/>
    <path d="M40.3,100.9l3.7.7-3-4.1-.7,3.4" fill="#010101" fill-rule="evenodd"/>
    <path d="M89.7,125l3.4,3.3L90.3,122l-.6,3" fill="#010101" fill-rule="evenodd"/>
    <path d="M79.6,8.8l1.8.2c3.7,1.1,6.3,4.2,7.7,9.3s1.3,11.1-.2,17.9c-3.8,13-9.5,20-17.2,21a5.7,5.7,0,0,1-1.8-.3c-3.7-1-6.3-4.1-7.7-9.2s-1.4-11.1.2-17.9c3.7-13.1,9.5-20,17.2-21" fill="#588fcb" fill-rule="evenodd"/>
    <path d="M88.9,36.2c-3.8,13.1-9.5,20.1-17.2,21L69.9,57c-3.8-1.1-6.3-4.2-7.7-9.3s-1.4-11.1.2-17.9c3.7-13,9.4-20,17.2-20.9a3.7,3.7,0,0,1,1.8.2c3.7,1,6.3,4.1,7.7,9.2s1.3,11.1-.2,17.9M82.1,6.1a10.7,10.7,0,0,0-2.5-.3c-9.4,1-16.1,8.8-20.2,23.3-1.8,7.8-1.8,14.5.1,20.3s5,9.3,9.7,10.6a10.1,10.1,0,0,0,2.5.3c9.3-1.1,16.1-8.8,20.2-23.4,1.7-7.7,1.7-14.5-.1-20.2S86.7,7.4,82.1,6.1" fill="#010101" fill-rule="evenodd"/>
    <path d="M20.8,9.8a9.9,9.9,0,0,0-4.5,1c-4.4,2.1-6.9,6.1-7.7,12.1s.4,12.7,3.6,20c5.9,12.3,13.2,18.8,22,19.5a9.9,9.9,0,0,0,4.5-1c4.3-2.1,6.8-6.1,7.6-12.1s-.4-12.7-3.5-20C36.9,17,29.5,10.5,20.8,9.8m0,3.1q11,.9,19.2,17.7c2.7,6.4,3.8,12.2,3.4,17.5s-2.5,8.8-5.9,10.5a7.8,7.8,0,0,1-3.3.7q-11-.9-19.2-17.7c-2.8-6.4-3.9-12.2-3.4-17.5s2.4-8.8,5.9-10.5a7.2,7.2,0,0,1,3.3-.7" fill="#010101" fill-rule="evenodd"/>
    <path d="M20.8,12.9c7.3.6,13.7,6.5,19.2,17.6,2.7,6.5,3.9,12.3,3.4,17.6s-2.5,8.8-5.9,10.5a9.8,9.8,0,0,1-3.3.7q-11-.9-19.2-17.7c-2.7-6.4-3.9-12.3-3.4-17.5s2.4-8.8,5.9-10.6a8.8,8.8,0,0,1,3.3-.6" fill="#588fcb" fill-rule="evenodd"/>
    <path d="M128.3,35.4c-7.5.2-14.9,3.8-22.3,10.8-5.3,5.1-8.8,10.5-10.6,16.3s-1.1,11.3,2.3,15A12.6,12.6,0,0,0,107,81q11.1-.3,22.2-10.8c5.2-5.1,8.8-10.5,10.6-16.3s1.1-11.3-2.3-15a12.5,12.5,0,0,0-9.2-3.5m0,3.1a9,9,0,0,1,7,2.6c2.6,2.9,3.1,6.9,1.5,11.9s-4.8,10.1-9.7,15q-10.6,9.8-20.1,9.9a9.1,9.1,0,0,1-7.1-2.6c-2.6-2.9-3.1-6.9-1.5-11.9s4.7-10.1,9.7-15c7-6.5,13.8-9.8,20.2-9.9" fill="#010101" fill-rule="evenodd"/>
    <path d="M128.3,38.4a9.8,9.8,0,0,1,7,2.6c2.6,2.9,3.1,6.9,1.6,12s-4.9,10.1-9.8,15q-10.6,9.8-20.1,9.9a9.8,9.8,0,0,1-7.1-2.6Q96,71,98.4,63.3c1.5-5,4.7-10,9.7-14.9,7-6.5,13.8-9.8,20.2-10" fill="#588fcb" fill-rule="evenodd"/>
    <path d="M136.9,116.4h-.1c-7-.1-12.8-1.5-17.4-4s-7-5.8-7.2-9.6,2.6-7.1,7.2-9.7,10.4-3.9,17.4-4h.1q10.3.2,17.4,3.9c4.6,2.6,7,5.8,7.2,9.7s-2.6,7.1-7.2,9.6-10.5,4-17.4,4.1m0-30.4h-.1c-8,.1-14.5,1.7-19.7,4.9s-7.8,7.1-8,11.9,2.9,8.7,8,11.8,11.7,4.7,19.7,4.9h.1c7.9-.2,14.5-1.8,19.6-4.9s7.8-7.1,8-11.9-2.8-8.8-8-11.9-11.7-4.7-19.6-4.8" fill="#010101" fill-rule="evenodd"/>
    <path d="M136.9,116.4h-.1c-7-.1-12.8-1.4-17.4-4s-7-5.8-7.2-9.6,2.6-7.1,7.2-9.7,10.4-3.9,17.4-4h.1c7,.1,12.8,1.4,17.4,4s7,5.7,7.2,9.6-2.6,7.1-7.2,9.7-10.4,3.9-17.4,4" fill="#588fcb" fill-rule="evenodd"/>
  </g>
  <g id="surface4">
    <text transform="translate(176 71.5)" font-size="50" fill="#002a46" font-family="Comfortaa-Bold, Comfortaa" font-weight="700" style="isolation: isolate">P<tspan x="31.1" y="0" letter-spacing="-0.04em">r</tspan><tspan x="53.4" y="0">o</tspan><tspan x="87.2" y="0" letter-spacing="-0.04em">j</tspan><tspan x="99.5" y="0" letter-spacing="-0.02em">e</tspan><tspan x="129.6" y="0">ct </tspan><tspan x="194.3" y="0" letter-spacing="-0.02em">P</tspan><tspan x="224.5" y="0" letter-spacing="-0.03em">a</tspan><tspan x="256.7" y="0">wz</tspan></text>
    <text transform="translate(176 126.5)" font-size="36" fill="#002a46" font-family="Pacifico-Regular, Pacifico" style="isolation: isolate"><tspan letter-spacing="-0.02em">R</tspan><tspan x="31" y="0">escu</tspan><tspan x="90.4" y="0" letter-spacing="0.14em">e</tspan><tspan x="109.5" y="0">. </tspan><tspan x="128.3" y="0" letter-spacing="0.08em">L</tspan><tspan x="155.4" y="0" letter-spacing="0.01em">o</tspan><tspan x="172" y="0">v</tspan><tspan x="188.2" y="0" letter-spacing="0.14em">e</tspan><tspan x="207.4" y="0">. </tspan><tspan x="226.2" y="0" letter-spacing="-0.02em">R</tspan><tspan x="257.1" y="0" letter-spacing="0.02em">e</tspan><tspan x="272" y="0">p</tspan><tspan x="289.3" y="0" letter-spacing="0em">e</tspan><tspan x="303.3" y="0">a</tspan><tspan x="320.2" y="0" letter-spacing="0.15em">t</tspan><tspan x="339.8" y="0">.</tspan></text>
  </g>
</svg>
