<svg data-name="Layer 1" xmlns="http://www.w3.org/2000/svg" viewBox="0 0 100 100"><defs><clipPath id="a"><path fill="none" d="M0 0h100v100H0z"/></clipPath></defs><g clip-path="url(#a)" fill-rule="evenodd"><path d="M60 74.22c-.06.36-.13.71-.22 1.07l-1.75-.88.19-2L60.47 71a27.44 27.44 0 0 1-.47 3.22" fill="#588fcb"/><path d="M56.84 83q-.35.57-.66 1.14a.25.25 0 0 0-.1.12c-.2.32-.41.64-.62 1a2.14 2.14 0 0 0-.13.19l-.62.88-.07.06L51 88.67l-3.57-1.07 1.73-3.28-1-4-.31-3 .53-2.62-3.07-1L43 76l-3.73-2.18L40.44 68l2-3-.09-3.32L45 59.32l-1.94-3.85-1.85 2.91-2.48-5.75 3.67-.19-1.41-5h-3.92l-1-3.51-2.87-1.68-2.79.54-2.91 1 3 2.24-2.92 3.41 1.88 1.83-.46 3.41-4.2-2.49-.44 4.81 2.23-2.62 4.51 6-1.66.22-3.29.25-3.23 3.53-1.19-1.32-3.39-.13-1.53 3.16 2.38 1.64 1.44 1.83 1.6 2 5 2.09.47 3.18 2.94.6 2.29 3-2.51 2.75-2.25 1-.38 1.92-2.07 1.61-.25.09-2.48 1-1.29 2.05.31 3a6 6 0 0 0-1.6-1c-.27-.14-.52-.59-.75-1.32a8.72 8.72 0 0 1-.34-1.26l-1-4.36 2.13-1.58.69-3.5-1.88-1.48-1.91-3.09 2-1.23.66-3.32-.88-.19-1.6-3.75-3.07-2.81 1-2.15-1.44-2.84 1.19-6.12 4.17-1.89 3.39-3 .47-2.46-1.39-1.71 3.7-1.29 4-3.91-.39-.59q1-.06 2.1-.06a29.16 29.16 0 0 1 5.67.57c.61.12 1.2.26 1.79.41a3 3 0 0 1 .53.16c.44.12.89.26 1.35.4l.44.16c.56.19 1.12.4 1.66.63a1.53 1.53 0 0 0 .31.16q.69.28 1.35.63l.47.22c.44.23.87.48 1.29.73l.28.16c.5.31 1 .64 1.47 1a1.19 1.19 0 0 1 .35.25c.37.25.74.53 1.09.82l.41.28a34.4 34.4 0 0 1 2.57 2.4 3.52 3.52 0 0 1 .31.35 11.46 11.46 0 0 1 .94 1l.26.31c.37.45.74.9 1.09 1.36a2.13 2.13 0 0 0 .16.25c.29.4.57.82.85 1.23a1.47 1.47 0 0 0 .25.38c.25.44.5.9.75 1.36l.12.19c.28.5.54 1 .79 1.58.06.12.11.24.15.34.22.45.4.89.57 1.33.06.15.12.28.16.41.2.55.4 1.1.59 1.67l-3.67 4.45-1.44-3.56-3.23-1-4.29 1.51-.72 2.78 2.63 2.33 3.07-2.84 3.42 3.76 2.6-.38L60 64.85l.57 2.39v2l-3.7 2.2-.38 3.76 2.92 1.51A29.91 29.91 0 0 1 56.84 83" fill="#129d49"/><path fill="#588fcb" d="M41.7 60.37l.75-1.2.47-.76.31.57-1.53 1.39zm18.37 2.52l-1 .79L57 65.32l-.59.09.28-.34 3-3.66c.12.48.24 1 .35 1.48m-6.21.76l-1.13-1.27-.91-1 1.28.4.76 1.87zm-2.17-2.34l-1 .95-2.13 1.96-.97-.89.31-1.14 3.07-1.1.72.22zM2.45 62.73a29.56 29.56 0 0 1 8.87-16 29.18 29.18 0 0 1 16.08-7.6l.22.25-2.82 2.78-3.39 1.17-1.94.67 1.29 1.64 1 1.2-.25 1.29-2.85 2.5-4 1.79-.66.32-.16.73-1.19 6.12-.1.5.22.44 1.13 2.21-.69 1.55-.44.94.79.73 2.82 2.56 1.5 3.5.28.69h.22L18.12 74l-1.5.88-1.25.79.78 1.23 1.91 3.1.13.23.22.15 1.16.92-.41 2.05-1.66 1.28-.76.57.19.92 1 4.35c.71 2.59 1.44 3.81 2.17 3.66a4.6 4.6 0 0 1 1 .73l2.38 2a29.28 29.28 0 0 1-17.17-12.8 29.62 29.62 0 0 1-3.86-21.33"/><path d="M25.55 97.48c-.58-.13-1.16-.27-1.72-.42l-.38-3.44-.25-2.46.8-1.26 2-.79.3-.11.19-.07.16-.12 2-1.61.44-.32.09-.53.22-1.2 1.57-.7.28-.12.22-.22L34 81.32l.84-.88-.75-1-2.29-3-.32-.44-.53-.1-1.95-.39-.31-2.14-.13-.82-.75-.32-4.67-2-1.38-1.63-1.44-1.8-.13-.16-.19-.12-1.34-1 .56-1.17 1.85.07.79.85 1.06 1.2L24 65.35l2.82-3.12 2.72-.23h.09l1.66-.22 2.48-.32-1.51-2-2.1-2.81.25-1.79.47-3.38.09-.73-.53-.53-.9-.86 2-2.36 1-1.2-1.26-1-.85-.6.29-.09 2.28-.34 1.88 1.07.85 2.93.31 1h1.07l2.85.06.63 2.18-1.85.09-2.1.1.84 1.92L39.91 59l1 2.39v.38l.09 2.76-1.79 2.68-.16.22-.06.32-1.13 5.74-.18 1 .87.51 3.73 2.21 1 .56.79-.81 1.63-1.65 1 .32-.3 1.37v.44l.34 3v.19l.88 3.47-1.47 2.8-.82 1.55L47 89l3.57 1.07.53.16A29.26 29.26 0 0 1 31.29 98a30.41 30.41 0 0 1-5.74-.56" fill="#588fcb"/><path d="M25.55 97.48a16.59 16.59 0 0 1-1.72-.42l-.38-3.4-.25-2.46.8-1.3 2-.79.25-.12.19-.07.19-.12 2-1.58.4-.35.13-.54.22-1.16 1.62-.73.28-.09.19-.25L34 81.35l.81-.91-.72-1-2.32-3-.29-.44-.53-.1-2-.38-.28-2.17-.13-.82-.78-.32-4.67-1.92-1.35-1.68-1.42-1.81-.13-.16-.19-.12-1.34-1 .56-1.17 1.85.07.75.88 1.07 1.2 1.1-1.2 2.82-3.12 2.72-.18 1.69-.19 2.48-.32-1.51-2-2.13-2.81.25-1.8.5-3.34.09-.76-.53-.5-.91-.89 2-2.36 1-1.2-1.25-.92-.82-.63.26-.09 2.35-.42 1.88 1.1.85 2.9.31 1h3.92l.6 2.18-1.82.09-2.1.13.84 1.92L39.91 59l1 2.39v.38l.09 2.79-1.79 2.65-.16.26-.06.28-1.13 5.78-.19 1 .88.54 3.73 2.18 1 .56.79-.78 1.63-1.64 1 .28-.3 1.33-.07.22v.22l.31 3v.19l.91 3.5-1.4 2.77-.85 1.58L47 89l3.61 1.07.53.16A29.29 29.29 0 0 1 31.26 98a30.26 30.26 0 0 1-5.71-.56M2.42 62.76a29.47 29.47 0 0 1 25-23.57l.22.25-2.84 2.75-3.39 1.17-1.94.64 1.29 1.61.94 1.2-.25 1.29-2.83 2.49-4 1.83-.7.32-.12.73-1.22 6.12-.1.47.25.47 1.1 2.21-.69 1.52-.41 1 .79.69 2.82 2.59 1.5 3.46.31.73h.19L18.09 74l-1.47.88-1.29.76.79 1.26L18 80.06l.16.22.19.16 1.19.91-.41 2.05-1.63 1.23-.76.57.19.92.94 4.38c.68 2.57 1.41 3.79 2.16 3.66a5.83 5.83 0 0 1 1 .73l2.35 2A29.24 29.24 0 0 1 6.31 84.06a29.63 29.63 0 0 1-3.89-21.3m49.24-1.42l-1 .92-2.13 2-1-.86.31-1.17 3.07-1.07.72.22m2.2 2.31l-1.16-1.3-.91-1 1.28.41.79 1.86m6.21-.73l-1 .76-2 1.67-.63.1.31-.38 3-3.66c.11.5.21 1 .32 1.51M41.7 60.37l.75-1.2.47-.76.31.57-1.53 1.39M56.81 83q-.31.57-.66 1.11s0 .08-.07.12c-.2.34-.41.67-.62 1l-.13.19-.62.85s-.05.08-.07.09L51 88.67l-3.57-1.07 1.73-3.32-1-4-.31-3 .5-2.62-3-1L43 76l-3.73-2.18L40.41 68l2-3.06-.06-3.28L45 59.32l-2-3.85-1.84 2.91-2.41-5.78 3.64-.16-1.38-5-3.95-.07-1-3.47-2.86-1.65-2.82.51-2.91 1.07 3 2.24-2.95 3.41 1.91 1.83-.43 3.34-4.23-2.46-.41 4.81 2.23-2.65 4.51 6-1.66.22-3.32.25-3.2 3.53-1.19-1.32-3.42-.13-1.5 3.16 2.38 1.64 1.44 1.83 1.6 2 5 2.09.43 3.18 3 .57 2.29 3-2.54 2.78-2.26 1-.37 1.92-2 1.61-.25.09-2.48 1-1.35 2.08.31 3a6 6 0 0 0-1.6-1q-.4-.21-.75-1.32c-.23-.74-.35-1.16-.38-1.26l-.94-4.39 2.13-1.58.66-3.47-1.88-1.48-1.91-3.09L19.41 75l.59-3.4-.85-.16-1.63-3.78-3-2.78.94-2.18-1.41-2.81 1.19-6.12 4.17-1.89 3.39-3 .47-2.46-1.39-1.74 3.67-1.26 4-3.91-.42-.51q1.07-.06 2.1-.06a31.25 31.25 0 0 1 5.67.53c.63.13 1.23.28 1.82.45l.5.12 1.38.45.44.12c.56.21 1.12.43 1.66.66l.31.13 1.35.63c.15.08.3.17.47.25l1.29.73.28.16c.48.29 1 .61 1.47.94a3.54 3.54 0 0 0 .35.26c.37.27.74.56 1.09.85a4.61 4.61 0 0 1 .38.28 31.31 31.31 0 0 1 2.6 2.4 3.52 3.52 0 0 1 .31.35c.32.33.63.68.94 1a3.58 3.58 0 0 1 .26.28c.37.47.73.93 1.06 1.39l.16.22c.31.42.59.85.85 1.26.08.13.16.26.25.38.27.45.53.89.78 1.33a2.18 2.18 0 0 1 .12.22c.28.5.54 1 .79 1.58a1.75 1.75 0 0 1 .15.34c.22.45.4.89.57 1.33a2.5 2.5 0 0 1 .16.41c.2.55.4 1.1.59 1.67l-3.67 4.45-1.47-3.56-3.23-1-4.26 1.51-.72 2.78 2.6 2.33 3.1-2.84 3.42 3.76 2.6-.38 2.35-1.9.57 2.43v2l-3.67 2.2-.38 3.76 2.89 1.51a28.92 28.92 0 0 1-2.6 6.29M60 74.22a8.27 8.27 0 0 1-.25 1.07l-1.72-.91.19-2L60.47 71a27.44 27.44 0 0 1-.47 3.22M37.28 37.58a30.93 30.93 0 0 0-25.9 6.6A31.45 31.45 0 0 0 .54 62.38Q-1.68 75.58 5.27 86t19.91 13.4a34.7 34.7 0 0 0 6.08.6A31.47 31.47 0 0 0 62 74.57Q64.17 61.4 57.21 51T37.28 37.58" fill="#010101"/><path fill="#010101" d="M54.33 55.16l-2.82-2.21-3.45.95 1.41 2.11 4.86-.85zm-32.19 4.89l2.28.44-1.88-2.58-.4 2.14zm30.93 15.21l2.14 2-1.76-4-.38 1.92"/><path d="M46.74 1.92a4.91 4.91 0 0 1 1.16.13q3.51 1 4.83 5.87a23.27 23.27 0 0 1-.13 11.27q-3.54 12.36-10.78 13.25a4.11 4.11 0 0 1-1.16-.16q-3.48-1-4.83-5.84A23.6 23.6 0 0 1 36 15.15Q39.5 2.81 46.74 1.92" fill="#588fcb"/><path d="M52.6 19.22q-3.54 12.36-10.78 13.22a5 5 0 0 1-1.16-.13q-3.51-1-4.83-5.87A23.48 23.48 0 0 1 36 15.18Q39.47 2.81 46.74 2a3.88 3.88 0 0 1 1.16.12q3.48 1 4.83 5.84a23.39 23.39 0 0 1-.13 11.3M48.34.19a6.55 6.55 0 0 0-1.6-.19Q38 1 34.08 14.74q-1.66 7.32.06 12.78c1.15 3.63 3.18 5.87 6.08 6.69a7.21 7.21 0 0 0 1.6.19q8.77-1 12.66-14.74 1.64-7.35-.06-12.78T48.34.19M9.88 2.55a6.59 6.59 0 0 0-2.82.61q-4.08 2-4.8 7.66t2.23 12.59q5.58 11.69 13.79 12.31a6.94 6.94 0 0 0 2.85-.6q4.05-2 4.77-7.67t-2.23-12.59Q18.12 3.19 9.88 2.55m0 2q6.9.54 12 11.14a23.37 23.37 0 0 1 2.13 11.08c-.29 3.32-1.53 5.53-3.7 6.62a4.57 4.57 0 0 1-2.07.41q-6.85-.52-12-11.14a23.34 23.34 0 0 1-2.13-11.11C4.43 8.22 5.67 6 7.84 4.92a5.27 5.27 0 0 1 2-.41" fill="#010101"/><path d="M9.91 4.48q6.87.57 12 11.14a23.44 23.44 0 0 1 2.13 11.07c-.31 3.35-1.56 5.56-3.73 6.63a4.8 4.8 0 0 1-2 .44q-6.9-.55-12-11.14a23.44 23.44 0 0 1-2.17-11.07q.45-5 3.7-6.66a5.35 5.35 0 0 1 2.07-.41" fill="#588fcb"/><path d="M77.27 18.68q-7 .22-14 6.82a24.78 24.78 0 0 0-6.61 10.28q-1.76 6 1.41 9.47a8 8 0 0 0 5.83 2.24q7-.23 14-6.82a24.78 24.78 0 0 0 6.61-10.28q1.76-6-1.41-9.47a7.84 7.84 0 0 0-5.8-2.24m0 2a5.79 5.79 0 0 1 4.42 1.64c1.61 1.83 1.93 4.34.94 7.54a23.12 23.12 0 0 1-6.08 9.47q-6.64 6.15-12.63 6.24a5.8 5.8 0 0 1-4.42-1.64q-2.41-2.74-1-7.54a23.11 23.11 0 0 1 6.11-9.47q6.61-6.15 12.63-6.24" fill="#010101"/><path d="M77.27 20.6a6 6 0 0 1 4.42 1.65q2.41 2.74 1 7.54a23.3 23.3 0 0 1-6.12 9.47q-6.64 6.15-12.63 6.27a5.93 5.93 0 0 1-4.42-1.67q-2.41-2.74-1-7.54a22.9 22.9 0 0 1 6.11-9.44q6.61-6.15 12.63-6.28" fill="#588fcb"/><path d="M82.67 69.8h-.07a22.69 22.69 0 0 1-10.88-2.52q-4.35-2.4-4.51-6.06.17-3.66 4.51-6.13a22.76 22.76 0 0 1 10.91-2.52h.07a23 23 0 0 1 10.87 2.5c2.89 1.61 4.39 3.64 4.52 6.08-.11 2.44-1.61 4.47-4.52 6.09a22.45 22.45 0 0 1-10.9 2.56m0-19.18h-.07q-7.48.12-12.35 3.09t-5 7.51q.18 4.55 5 7.48t12.35 3.06h.07q7.49-.14 12.31-3.1t5-7.51q-.15-4.55-5-7.48T82.7 50.62" fill="#010101"/><path d="M82.67 69.8h-.07a23 23 0 0 1-10.88-2.49q-4.32-2.43-4.51-6.09.17-3.66 4.51-6.09a22.63 22.63 0 0 1 10.91-2.56h.07a22.59 22.59 0 0 1 10.87 2.52c2.91 1.6 4.41 3.62 4.52 6.06-.11 2.44-1.61 4.49-4.52 6.13a22.77 22.77 0 0 1-10.9 2.52" fill="#588fcb"/></g></svg>