<svg xmlns="http://www.w3.org/2000/svg" width="16" height="16"><defs><clipPath id="a"><path fill="none" d="M0 0h16v16H0z"/></clipPath></defs><g data-name="Layer 2"><g clip-path="url(#a)" fill-rule="evenodd" data-name="Layer 1"><path d="M9.6 11.9h-.3v-.3l.4-.2a4.3 4.3 0 0 0-.1.5" fill="#588fcb"/><path d="M9.1 13.3v.2h-.2a.1.1 0 0 0-.1.1h-.1l-.5.4h-.6l.3-.5-.2-.7V12l-.5-.2-.3.4-.6-.4.2-.9.3-.5v-.5l.4-.4-.3-.6-.3.4-.4-.9h.6l-.2-.8h-.7V7l-.5-.2h-.5l-.5.2.5.4-.5.5.3.3v.5L4 8.4v.7l.4-.4.7 1h-.9l-.5.6-.2-.2h-.6l-.2.5.4.2.2.3.3.3.8.4v.5h.5l.4.5-.4.4-.4.2v.3l-.3.2-.4.2-.2.3v.6l-.2-.2-.2-.2v-.2l-.2-.7.4-.2v-.6l-.3-.2-.3-.5.3-.2v-.5l-.3-.6-.5-.4.2-.4-.3-.4.2-1 .7-.3.5-.5v-.5l-.2-.2.7-.2.6-.7h2.7l.3.2H8l.4.4.2.2.2.3v.2H9v.2a.4.4 0 0 1 .1.3h.1v.5l-.6.7-.2-.6-.5-.2-.7.3-.2.4.5.4.5-.5.5.6h.4l.4-.3v.7l-.6.3V12l.5.3a4.2 4.2 0 0 1-.4 1" fill="#129d49"/><path fill="#588fcb" d="M6.7 9.7l.1-.2.1-.2v.1l-.2.3zm2.9.4h-.1l-.4.3.5-.6v.3m-1 .1l-.2-.2-.1-.2.2.1.1.3zm-.3-.4l-.2.2-.3.3-.2-.2.1-.1.5-.2h.1zM.4 10a4.8 4.8 0 0 1 1.4-2.5 4.2 4.2 0 0 1 2.6-1.2l-.4.4-.6.2h-.3l.2.3.2.2v.2l-.5.5-.7.3h-.1v.2l-.2.9.2.3v.3H2l.2.2.4.4.3.5v.2l-.2.2h-.2v.2l.3.5H3v.3l-.3.2v.2l.2.7q.1.6.3.6h.2l.4.3a4.9 4.9 0 0 1-2.8-2A5.3 5.3 0 0 1 .4 10"/><path d="M4.1 15.6h-.3v-1.2h.5l.3-.2h.1V14H5l.4-.5h.2v-.2l-.4-.5h-.6v-.4h-.2l-.7-.4-.2-1-.2-.3H3v-.2h.3v.2h.3l.5-.5h1.3l-.2-.3-.4-.4V8.2h-.1l.4-.4v-.5h.1l.3.2v.6h.6v.4h-.2v.3l.4.9.2.4v.4l-.3.5v1h.1l.6.4H7v-.2l.3-.2h.2v1.3l-.2.4v.3h.2l.6.2h.1A4.8 4.8 0 0 1 5 15.7h-.9" fill="#588fcb"/><path d="M4.1 15.6h-.3v-1.2h.5l.3-.2h.1V14H5l.4-.5h.2v-.2l-.4-.5h-.6v-.4h-.2l-.7-.4-.2-1-.2-.3H3v-.2h.3v.2h.3l.5-.5h1.3l-.2-.3-.4-.4V8.2h-.1l.4-.4v-.5h.1l.3.2v.6h.6v.4h-.2v.3l.4.9v.4h.1v.4l-.3.5h.1v1h.1l.6.4H7v-.2l.3-.2h.2v1.3l-.2.4-.2.3h.3l.6.2h.1A4.8 4.8 0 0 1 5 15.7h-.9M.4 10a4.8 4.8 0 0 1 1.4-2.5 4.2 4.2 0 0 1 2.6-1.2l-.4.5h-.9l.2.3.2.2v.2l-.5.6-.7.3h-.1v.2l-.2.9.2.3v.3H2l.2.2.4.4.3.5v.2l-.2.2h-.2v.2l.3.5H3v.3l-.3.2v.2l.2.7q.1.6.3.6h.2l.3.3a4.5 4.5 0 0 1-2.7-2A5.3 5.3 0 0 1 .4 10m7.9-.2l-.2.2-.3.3-.2-.2h.1l.5-.2h.1m.3.4l-.2-.3v-.2h.2v.3m1-.1h-.1l-.4.3.5-.6v.3m-2.9-.3v-.4l-.2.3m2.4 3.6v.2a.1.1 0 0 0-.1.1h-.1l-.5.4-.6.1.3-.5-.2-.7V12l-.5-.2-.3.4-.6-.4.2-.9.3-.5v-.5l.4-.4-.3-.6-.3.4-.4-.9h.6l-.2-.8h-.7V7l-.5-.2h-.5l-.5.2.5.4-.5.5.3.3v.5L4 8.4v.7l.4-.4.7 1h-.9l-.5.6-.2-.2h-.6l-.2.5.4.2.2.3.3.3.8.4v.5h.5l.4.5-.4.4-.4.2v.3l-.3.2-.4.2-.2.3v.6l-.2-.2-.2-.2v-.2l-.2-.7.4-.2v-.6l-.3-.2-.3-.5.3-.2v-.5l-.3-.6-.5-.4.2-.4-.3-.4.2-1 .7-.3.5-.5v-.5l-.2-.2.7-.2.6-.7h2.7l.3.2H8l.4.4.2.2.2.3v.2H9v.2a.4.4 0 0 1 .1.3h.1v.5l-.6.7-.2-.6-.6-.2-.6.3-.2.4.5.4.5-.5.5.6h.4l.4-.3v.7l-.6.3V12l.5.3a4.2 4.2 0 0 1-.4 1m.5-1.4v-.3l.4-.2a4.3 4.3 0 0 0-.1.5M6 6H5a4.7 4.7 0 0 0-3.2 1.1A4.6 4.6 0 0 0 .1 10a5.1 5.1 0 0 0 .7 3.8A5.1 5.1 0 0 0 4 15.9h1a4.7 4.7 0 0 0 3.2-1.2 4.6 4.6 0 0 0 1.7-2.9 5.2 5.2 0 0 0-.7-3.7A5.1 5.1 0 0 0 6 6" fill="#010101"/><path fill="#010101" d="M8.7 8.8l-.5-.3-.5.1.2.4.8-.2zm-5.2.8l.4.1-.3-.4-.1.3zm5 2.4l.3.4-.2-.7v.3"/><path d="M7.5.3h.2a1.3 1.3 0 0 1 .7 1 2.8 2.8 0 0 1 0 1.8c-.4 1.3-.9 2-1.7 2.1h-.2c-.4-.1-.6-.5-.8-1a3.8 3.8 0 0 1 .1-1.8c.3-1.3.9-2 1.7-2.1" fill="#588fcb"/><path d="M8.4 3.1c-.4 1.3-.9 2-1.7 2.1h-.2c-.4-.1-.6-.5-.8-1a3.8 3.8 0 0 1 .1-1.8c.3-1.3.9-2 1.7-2.1h.2a1.3 1.3 0 0 1 .7 1 2.8 2.8 0 0 1 0 1.8M7.7 0h-.2c-1 .1-1.6.9-2 2.4a3.4 3.4 0 0 0 0 2 1.5 1.5 0 0 0 .9 1.1h.3c.9-.1 1.6-.9 2-2.4a3.4 3.4 0 0 0 0-2 1.6 1.6 0 0 0-1-1.1M1.6.4h-.5a1.3 1.3 0 0 0-.7 1.3 3.6 3.6 0 0 0 .3 2C1.3 5 2 5.6 2.9 5.7h.5a1.3 1.3 0 0 0 .7-1.2 3.6 3.6 0 0 0-.3-2C3.2 1.1 2.5.5 1.6.4m0 .3a2.7 2.7 0 0 1 1.9 1.8 3 3 0 0 1 .3 1.8 1 1 0 0 1-.5 1h-.4c-.7 0-1.3-.5-1.9-1.7a2.9 2.9 0 0 1-.3-1.8 1 1 0 0 1 .6-1h.3" fill="#010101"/><path d="M1.6.7a2.7 2.7 0 0 1 1.9 1.8 3.9 3.9 0 0 1 .4 1.8c-.1.5-.3.9-.6 1h-.4c-.7 0-1.3-.6-1.9-1.7a2.9 2.9 0 0 1-.3-1.8 1 1 0 0 1 .6-1h.3" fill="#588fcb"/><path d="M12.4 3a3.5 3.5 0 0 0-2.3 1.1 3.1 3.1 0 0 0-1 1.6 1.5 1.5 0 0 0 .2 1.5 1 1 0 0 0 .9.4 3.5 3.5 0 0 0 2.3-1.1 4.7 4.7 0 0 0 1-1.6 1.7 1.7 0 0 0-.2-1.6 1.2 1.2 0 0 0-.9-.3m0 .3a.9.9 0 0 1 .7.3 1.2 1.2 0 0 1 .1 1.2 3.3 3.3 0 0 1-1 1.5 3.2 3.2 0 0 1-2 1 .9.9 0 0 1-.7-.3 1.2 1.2 0 0 1-.1-1.2 3 3 0 0 1 .9-1.5 2.9 2.9 0 0 1 2.1-1" fill="#010101"/><path d="M12.4 3.3a.9.9 0 0 1 .7.3 1.2 1.2 0 0 1 .1 1.2 3.3 3.3 0 0 1-1 1.5 3.2 3.2 0 0 1-2 1 .9.9 0 0 1-.7-.3 1.2 1.2 0 0 1-.1-1.2 3 3 0 0 1 .9-1.5 2.9 2.9 0 0 1 2.1-1" fill="#588fcb"/><path d="M13.2 11.2a3.9 3.9 0 0 1-1.7-.4c-.5-.3-.7-.6-.7-1s.2-.7.7-1a3.9 3.9 0 0 1 1.7-.4 4.8 4.8 0 0 1 1.8.4c.4.3.7.6.7 1s-.3.7-.7 1a4.8 4.8 0 0 1-1.8.4m0-3.1a4.2 4.2 0 0 0-2 .5 1.6 1.6 0 0 0-.8 1.2 1.6 1.6 0 0 0 .8 1.2 4.2 4.2 0 0 0 2 .5 3.9 3.9 0 0 0 2-.5 1.4 1.4 0 0 0 .8-1.2 1.4 1.4 0 0 0-.8-1.2 3.9 3.9 0 0 0-2-.5" fill="#010101"/><path d="M13.2 11.2a3.9 3.9 0 0 1-1.7-.4c-.5-.3-.7-.6-.7-1s.2-.7.7-1a3.9 3.9 0 0 1 1.7-.4 4.8 4.8 0 0 1 1.8.4c.4.3.7.6.7 1s-.3.7-.7 1a4.8 4.8 0 0 1-1.8.4" fill="#588fcb"/></g></g></svg>