<svg xmlns="http://www.w3.org/2000/svg" viewBox="0 0 159.51 158.45"><g data-name="Layer 2"><g fill-rule="evenodd" data-name="Layer 1"><path d="M95.76 117.6c-.1.56-.22 1.13-.35 1.7l-2.8-1.4.3-3.25 3.55-2.1a45 45 0 0 1-.7 5" fill="#588fcb"/><path d="M90.66 131.5q-.55.9-1 1.8a.29.29 0 0 0-.15.2l-1 1.5-.2.3-1 1.4a.94.94 0 0 0-.1.1l-5.8 3.7-5.7-1.7 2.75-5.2-1.65-6.4-.5-4.7.85-4.15-4.9-1.55-3.6 3.6-6-3.45 1.85-9.15 3.25-4.8-.15-5.25 4.2-3.75-3.1-6.1-2.95 4.6-4-9.1 5.85-.3-2.25-7.95-6.25-.05-1.65-5.55L53 67l-4.45.85-4.65 1.65 4.71 3.5L44 78.4l3 2.9-.75 5.35-6.7-4-.65 7.65 3.55-4.15 7.2 9.45L47 96l-5.25.4-5.19 5.6-1.9-2.1-5.4-.2-2.45 5 3.8 2.6 2.3 2.9 2.55 3.1 8 3.3.75 5.05 4.7.95 3.65 4.75-4 4.35-3.56 1.6-.6 3-3.3 2.55-.4.15-3.95 1.55-2.14 3.45.5 4.7a9.25 9.25 0 0 0-2.55-1.7 3.59 3.59 0 0 1-1.2-2.1 13.37 13.37 0 0 1-.55-2l-1.55-6.9 3.4-2.5 1.1-5.55-3-2.35-3.05-4.9 3.25-2 1-5.25-1.4-.3-2.55-6-4.9-4.45 1.55-3.4-2.3-4.5 1.9-9.7 6.65-3 5.4-4.7.75-3.9-2.2-2.7 5.9-2.05 6.4-6.2-.7-.85c1.1-.07 2.21-.1 3.35-.1a47.06 47.06 0 0 1 9 .9c1 .2 1.92.42 2.85.65a7 7 0 0 1 .85.25c.7.2 1.41.41 2.15.65a5.37 5.37 0 0 1 .7.25c.9.3 1.78.63 2.65 1a3.33 3.33 0 0 0 .5.25c.73.3 1.45.63 2.15 1 .23.1.48.21.75.35.7.36 1.38.75 2 1.15.16.1.32.18.45.25.8.5 1.58 1 2.35 1.55a2.09 2.09 0 0 1 .55.4 21.4 21.4 0 0 1 1.75 1.3c.23.17.45.31.65.45q2.14 1.8 4.1 3.8c.17.17.33.35.5.55q.8.8 1.5 1.65l.4.5c.6.7 1.18 1.42 1.75 2.15a2.92 2.92 0 0 0 .25.4q.69.94 1.35 1.95a3 3 0 0 0 .4.6c.4.7.8 1.41 1.2 2.15l.2.3c.43.8.85 1.63 1.25 2.5.1.2.18.38.25.55q.5 1 .9 2.1c.1.23.18.45.25.65.33.87.65 1.75 1 2.65l-5.85 7.05-2.2-5.55-5.15-1.6-6.85 2.4-1.15 4.4 4.2 3.7 4.9-4.5 5.45 5.95 4.15-.6 3.75-3 .9 3.8c.07 1.06.08 2.13 0 3.2l-5.9 3.5-.6 6 4.65 2.4a47.32 47.32 0 0 1-4.15 9.9" fill="#129d49"/><path d="M66.51 95.65l1.2-1.9.75-1.2.5.9-2.45 2.2m29.3 4l-1.55 1.25-3.26 2.6-.95.15.45-.55 4.8-5.8c.2.77.38 1.55.55 2.35m-9.99 1.2l-1.8-2-1.45-1.6 2 .65 1.2 2.95m-3.4-3.7l-1.6 1.5-3.4 3.1-1.55-1.4.5-1.8 4.9-1.75 1.15.35M3.91 99.4a46.86 46.86 0 0 1 39.8-37.35l.35.4-4.5 4.35-5.4 1.85-3.1 1 2.05 2.6 1.55 1.9-.4 2-4.55 4L23.36 83l-1.05.5-.25 1.15-1.9 9.7-.15.8.35.7 1.8 3.5-1.1 2.45-.7 1.5 1.25 1.15 4.5 4 2.4 5.55.45 1.1h.35l-.4 2-2.4 1.4-2 1.25 1.25 1.95 3 5 .2.35.35.25 1.85 1.45-.65 3.25-2.65 2-1.2.9.3 1.45 1.55 6.9v.05q1.7 6.15 3.45 5.8a7.15 7.15 0 0 1 1.6 1.15l3.8 3.25q-18-5.35-27.35-20.4t-6.1-33.7" fill="#588fcb"/><path d="M40.76 154.45c-.93-.2-1.85-.42-2.75-.65l-.6-5.45-.4-3.9 1.25-2 3.25-1.25.49-.2.3-.1.25-.2 3.25-2.55.7-.5.15-.85.35-1.9 2.5-1.1.45-.2.35-.35 4-4.4 1.35-1.4-1.2-1.55-3.65-4.75-.55-.7-.85-.15-3.1-.65-.5-3.4-.2-1.3-1.2-.5-7.45-3.1-2.2-2.65-2.3-2.85-.2-.25-.3-.2-2.15-1.5.9-1.85 2.95.1 1.25 1.35 1.7 1.9 1.7-1.85 4.5-5 4.35-.35h.15l2.65-.35 4-.5-2.4-3.15-3.44-4.4.4-2.85.75-5.35.15-1.15-.85-.85-1.45-1.35 3.25-3.75L52 72.6l-2-1.5-1.35-.95.45-.15 3.45-.65 3 1.7 1.35 4.65.5 1.65h1.7l4.55.1 1 3.45-2.95.15-3.35.15 1.35 3 3.95 9.15 1.65 3.8v.6l.1 4.45-2.85 4.25-.25.35-.1.5-1.8 9.1-.3 1.65 1.4.8 5.95 3.5 1.55.9 1.25-1.3 2.6-2.6 1.55.5L74 122l-.05.35v.35l.55 4.7v.3l1.4 5.5-2.35 4.45-1.3 2.45 2.75.9 5.7 1.7.85.25a46.88 46.88 0 0 1-31.65 12.4 47.61 47.61 0 0 1-9.15-.9" fill="#588fcb"/><path d="M40.76 154.45a25.56 25.56 0 0 1-2.76-.65l-.6-5.4-.4-3.9 1.25-2.05 3.25-1.25.4-.2.3-.1.3-.2 3.25-2.5.65-.55.2-.85.4-1.8 2.5-1.15.45-.15.3-.4 4-4.35 1.3-1.45-1.15-1.55-3.7-4.75-.5-.7-.85-.15-3.15-.6-.45-3.45-.2-1.3-1.25-.5-7.45-3-2.15-2.65-2.3-2.9-.2-.25-.3-.2-2.15-1.5.9-1.85 2.95.1 1.2 1.4 1.7 1.9 1.75-1.9 4.5-5 4.35-.3h.05l2.7-.3 4-.5-2.4-3.2-3.4-4.45.4-2.85.8-5.3.15-1.2-.85-.8-1.45-1.4 3.25-3.75 1.65-2-2-1.45-1.3-1 .4-.15 3.5-.65 3 1.75 1.35 4.6.5 1.65 1.7.05h4.55l1 3.45-2.9.15-3.35.2 1.35 3 3.95 9.1 1.6 3.8v.6l.1 4.5-2.85 4.2-.25.4-.1.45-1.8 9.15-.3 1.6 1.4.85 5.95 3.45 1.55.9 1.25-1.25 2.6-2.6 1.55.45-.4 2.15-.1.35v.35l.5 4.7.05.15v.15l1.5 5.65-2.35 4.4-1.35 2.5 2.7.8 5.75 1.7.85.25a46.67 46.67 0 0 1-40.8 11.5m-36.9-55A46.86 46.86 0 0 1 43.66 62.1l.35.4-4.45 4.35-5.4 1.85-3.1 1 2.05 2.55 1.5 1.9-.4 2-4.5 4-6.35 2.9-1.1.5-.2 1.15-1.95 9.7-.11.8.4.75 1.75 3.5-1.1 2.4-.65 1.55 1.25 1.1 4.5 4.1 2.35 5.5.5 1.15h.3l-.4 2-2.35 1.4-2.05 1.2 1.25 2 3.05 4.95.25.35.3.25 1.9 1.45-.65 3.25-2.65 1.95-1.2.9.3 1.45 1.5 7q1.65 6.11 3.45 5.8a8.84 8.84 0 0 1 1.6 1.15l3.75 3.25q-17.89-5.35-27.3-20.45t-6.19-33.7m78.55-2.25l-1.6 1.45-3.4 3.1-1.55-1.35.5-1.85 4.9-1.7 1.15.35m3.5 3.65l-1.85-2-1.45-1.55 2 .65 1.25 2.95m9.9-1.15l-1.55 1.2-3.21 2.6-1 .15.5-.6 4.8-5.8c.16.8.33 1.6.5 2.4m-29.3-4l1.2-1.9.75-1.2.5.9-2.45 2.2m24.1 35.85c-.34.6-.68 1.18-1 1.75a1.86 1.86 0 0 0-.1.2c-.33.53-.67 1.05-1 1.55l-.2.3c-.33.47-.67.91-1 1.35a1.28 1.28 0 0 1-.1.15l-5.8 3.7-5.7-1.7 2.75-5.25-1.65-6.35-.5-4.7.8-4.15-4.85-1.55-3.6 3.6-6-3.45 1.8-9.15 3.26-4.85-.1-5.2 4.2-3.8-3.1-6.1-2.95 4.6-4-9.15 5.8-.25-2.2-7.95-6.3-.1-1.6-5.5L53 67l-4.5.8-4.65 1.7 4.76 3.5-4.7 5.4L47 81.3l-.75 5.3-6.75-3.9-.6 7.65 3.55-4.2 7.2 9.5L47 96l-5.3.4-5.1 5.6-1.9-2.1-5.45-.2-2.4 5 3.8 2.6 2.3 2.9 2.55 3.1 8 3.3.7 5.05 4.75.9 3.65 4.75-4.05 4.4-3.6 1.6-.6 3-3.25 2.55-.4.15-3.95 1.55-2.14 3.45.5 4.7a9.25 9.25 0 0 0-2.55-1.7 3.59 3.59 0 0 1-1.2-2.1c-.37-1.17-.57-1.83-.6-2l-1.5-7 3.4-2.5 1.05-5.5-3-2.35-3.05-4.9 3.3-2 1-5.3-1.35-.25-2.6-6-4.85-4.4 1.5-3.45-2.25-4.35 1.9-9.7 6.65-3 5.4-4.7.75-3.9-2.2-2.75 5.85-2 6.4-6.2-.7-.85c1.13-.07 2.25-.1 3.35-.1a48.88 48.88 0 0 1 9 .85c1 .2 2 .43 2.9.7l.8.2 2.2.7.7.2c.9.33 1.78.68 2.65 1.05l.5.2 2.15 1 .75.4c.67.36 1.35.75 2 1.15.13.06.28.15.45.25.76.46 1.55 1 2.35 1.5.16.13.35.26.55.4.6.43 1.18.88 1.75 1.35a5.86 5.86 0 0 1 .6.45 51.79 51.79 0 0 1 4.15 3.8c.17.17.33.35.5.55q.75.8 1.5 1.65a4.55 4.55 0 0 1 .4.45c.6.73 1.16 1.47 1.7 2.2l.25.35a23.42 23.42 0 0 1 1.35 2l.4.6c.43.7.85 1.4 1.25 2.1a3.63 3.63 0 0 1 .2.35c.43.8.85 1.63 1.25 2.5a3.07 3.07 0 0 1 .25.55q.5 1 .9 2.1a3.82 3.82 0 0 1 .25.65c.33.87.65 1.75 1 2.65l-5.85 7.05-2.3-5.65-5.15-1.6-6.8 2.4-1.15 4.4 4.15 3.7 5-4.5 5.45 5.95 4.15-.6 3.75-3 .9 3.85v3.2l-5.85 3.5-.6 6 4.6 2.4a44.58 44.58 0 0 1-4.15 9.9m5.15-13.9c-.1.56-.24 1.13-.4 1.7l-2.75-1.45.3-3.2 3.55-2.1a45 45 0 0 1-.7 5m-36.3-58A50 50 0 0 0 .86 98.85q-3.55 20.9 7.55 37.45t31.75 21.2a56.92 56.92 0 0 0 9.7.95 50.07 50.07 0 0 0 49-40.3q3.56-20.85-7.55-37.4t-31.8-21.2" fill="#010101"/><path d="M86.66 87.4l-4.5-3.5-5.5 1.5 2.25 3.35 7.75-1.35m-51.35 7.75l3.65.7-3-4.1-.65 3.4m49.35 24.1l3.4 3.25-2.8-6.3-.6 3" fill="#010101"/><path d="M74.56 3.05a8.13 8.13 0 0 1 1.85.2q5.59 1.65 7.7 9.3t-.2 17.85q-5.65 19.6-17.2 21a6.77 6.77 0 0 1-1.85-.25q-5.55-1.6-7.7-9.25t.2-17.9Q63 4.44 74.56 3.05" fill="#588fcb"/><path d="M83.91 30.45q-5.66 19.61-17.2 21a8.74 8.74 0 0 1-1.85-.2q-5.59-1.61-7.7-9.3t.2-17.85Q63 4.45 74.56 3.1a6 6 0 0 1 1.85.2q5.55 1.59 7.7 9.25t-.2 17.9M77.11.3a10.91 10.91 0 0 0-2.55-.3q-14 1.55-20.2 23.35-2.65 11.59.1 20.25t9.7 10.6a10.85 10.85 0 0 0 2.55.3q14-1.56 20.2-23.35 2.59-11.65-.1-20.25T77.11.3M15.76 4.05a10.69 10.69 0 0 0-4.5 1q-6.5 3.1-7.65 12.1t3.55 20q8.9 18.49 22 19.5a11.21 11.21 0 0 0 4.55-1q6.45-3.15 7.6-12.15t-3.55-19.95Q28.91 5 15.76 4.05m0 3.1Q26.76 8 35 24.8q4.09 9.6 3.4 17.55t-5.9 10.5a7.38 7.38 0 0 1-3.3.65Q18.21 52.65 10 35.85q-4.11-9.6-3.4-17.55t6-10.5a8.2 8.2 0 0 1 3.25-.65" fill="#010101"/><path d="M15.81 7.1Q26.76 8 35 24.75q4.1 9.64 3.4 17.55t-5.94 10.5a7.76 7.76 0 0 1-3.25.7q-11-.9-19.2-17.65-4.11-9.66-3.4-17.55t5.9-10.55a8.48 8.48 0 0 1 3.3-.65" fill="#588fcb"/><path d="M123.26 29.6q-11.15.34-22.3 10.8-7.86 7.65-10.55 16.3-2.8 9.55 2.25 15a12.76 12.76 0 0 0 9.3 3.55q11.1-.34 22.25-10.8 7.85-7.65 10.55-16.3 2.81-9.55-2.25-15a12.56 12.56 0 0 0-9.25-3.55m0 3.1a9.34 9.34 0 0 1 7 2.6q3.85 4.35 1.5 12t-9.7 15Q111.51 72 102 72.15a9.36 9.36 0 0 1-7-2.6q-3.94-4.35-1.64-11.95t9.75-15q10.55-9.75 20.15-9.9" fill="#010101"/><path d="M123.26 32.65a9.66 9.66 0 0 1 7 2.6q3.85 4.35 1.55 12t-9.75 15Q111.51 72 102 72.15a9.51 9.51 0 0 1-7-2.65q-3.85-4.35-1.55-12t9.75-14.95q10.55-9.75 20.15-10" fill="#588fcb"/><path d="M131.86 110.6h-.1q-10.45-.15-17.35-4c-4.64-2.53-7-5.74-7.2-9.6.17-3.87 2.56-7.1 7.2-9.7s10.4-3.9 17.4-4a.07.07 0 0 1 .1 0q10.4.15 17.35 4t7.2 9.65q-.26 5.8-7.2 9.65t-17.4 4m0-30.4h-.1q-12 .19-19.7 4.9t-8 11.9q.3 7.2 8 11.85t19.65 4.85h.1q12-.2 19.65-4.9t8-11.9q-.25-7.2-8-11.85t-19.6-4.85" fill="#010101"/><path d="M131.86 110.6a.07.07 0 0 1-.1 0q-10.39-.15-17.35-3.95t-7.2-9.65c.17-3.87 2.56-7.09 7.2-9.65s10.43-3.95 17.4-4h.1q10.46.15 17.35 4t7.2 9.6q-.26 5.8-7.2 9.7t-17.4 4" fill="#588fcb"/></g></g></svg>